HIERARCHY
ROOT Hips
{
	OFFSET -44.275551 -9.155879 87.567955
	CHANNELS 6 Xposition Yposition Zposition Zrotation Yrotation Xrotation
	JOINT Spine
	{
		OFFSET 0.000000 2.080107 8.814247
		CHANNELS 6 Xposition Yposition Zposition Zrotation Yrotation Xrotation
		JOINT Spine1
		{
			OFFSET 0.000000 0.000001 8.844139
			CHANNELS 6 Xposition Yposition Zposition Zrotation Yrotation Xrotation
			JOINT Spine2
			{
				OFFSET 0.000000 0.000001 11.682266
				CHANNELS 6 Xposition Yposition Zposition Zrotation Yrotation Xrotation
				JOINT Spine3
				{
					OFFSET 0.000000 0.000000 11.746696
					CHANNELS 6 Xposition Yposition Zposition Zrotation Yrotation Xrotation
					JOINT Neck
					{
						OFFSET 0.000000 0.000001 17.658264
						CHANNELS 6 Xposition Yposition Zposition Zrotation Yrotation Xrotation
						JOINT Neck1
						{
							OFFSET 0.000000 0.000000 5.101517
							CHANNELS 6 Xposition Yposition Zposition Zrotation Yrotation Xrotation
							JOINT Head
							{
								OFFSET 0.000000 0.000000 5.101517
								CHANNELS 6 Xposition Yposition Zposition Zrotation Yrotation Xrotation
								JOINT HeadEnd
								{
									OFFSET 0.000000 0.000001 11.655090
									CHANNELS 6 Xposition Yposition Zposition Zrotation Yrotation Xrotation
									End Site
									{
										OFFSET 0.000000 0.000000 0.100006
									}
								}
							}
						}
					}
					JOINT RightShoulder
					{
						OFFSET -2.625389 0.000001 11.175217
						CHANNELS 6 Xposition Yposition Zposition Zrotation Yrotation Xrotation
						JOINT RightArm
						{
							OFFSET 0.000000 0.000001 10.434708
							CHANNELS 6 Xposition Yposition Zposition Zrotation Yrotation Xrotation
							JOINT RightForeArm
							{
								OFFSET 0.000000 0.000002 29.628418
								CHANNELS 6 Xposition Yposition Zposition Zrotation Yrotation Xrotation
								JOINT RightHand
								{
									OFFSET 0.000000 0.000002 22.857605
									CHANNELS 6 Xposition Yposition Zposition Zrotation Yrotation Xrotation
									JOINT RightHandThumb1
									{
										OFFSET -2.867325 -2.944291 3.959564
										CHANNELS 6 Xposition Yposition Zposition Zrotation Yrotation Xrotation
										JOINT RightHandThumb2
										{
											OFFSET 0.000000 0.000001 3.350403
											CHANNELS 6 Xposition Yposition Zposition Zrotation Yrotation Xrotation
											JOINT RightHandThumb3
											{
												OFFSET 0.000000 0.000000 3.756516
												CHANNELS 6 Xposition Yposition Zposition Zrotation Yrotation Xrotation
												JOINT RightHandThumb4
												{
													OFFSET 0.000000 0.000000 3.147339
													CHANNELS 6 Xposition Yposition Zposition Zrotation Yrotation Xrotation
													End Site
													{
														OFFSET 0.000000 0.000000 0.100006
													}
												}
											}
										}
									}
									JOINT RightHandIndex1
									{
										OFFSET -0.086754 -2.345279 10.030899
										CHANNELS 6 Xposition Yposition Zposition Zrotation Yrotation Xrotation
										JOINT RightHandIndex2
										{
											OFFSET 0.000000 0.000000 4.061096
											CHANNELS 6 Xposition Yposition Zposition Zrotation Yrotation Xrotation
											JOINT RightHandIndex3
											{
												OFFSET 0.000000 0.000000 3.248871
												CHANNELS 6 Xposition Yposition Zposition Zrotation Yrotation Xrotation
												JOINT RightHandIndex4
												{
													OFFSET 0.000000 0.000001 2.639709
													CHANNELS 6 Xposition Yposition Zposition Zrotation Yrotation Xrotation
													End Site
													{
														OFFSET 0.000000 0.000000 0.100006
													}
												}
											}
										}
									}
									JOINT RightHandMiddle1
									{
										OFFSET 0.104103 -0.006767 9.502945
										CHANNELS 6 Xposition Yposition Zposition Zrotation Yrotation Xrotation
										JOINT RightHandMiddle2
										{
											OFFSET 0.000000 0.000000 4.568726
											CHANNELS 6 Xposition Yposition Zposition Zrotation Yrotation Xrotation
											JOINT RightHandMiddle3
											{
												OFFSET 0.000000 0.000000 3.654984
												CHANNELS 6 Xposition Yposition Zposition Zrotation Yrotation Xrotation
												JOINT RightHandMiddle4
												{
													OFFSET 0.000000 0.000000 2.741241
													CHANNELS 6 Xposition Yposition Zposition Zrotation Yrotation Xrotation
													End Site
													{
														OFFSET 0.000000 0.000000 0.100006
													}
												}
											}
										}
									}
									JOINT RightHandRing1
									{
										OFFSET 0.086754 2.267443 8.921707
										CHANNELS 6 Xposition Yposition Zposition Zrotation Yrotation Xrotation
										JOINT RightHandRing2
										{
											OFFSET 0.000000 0.000000 4.061096
											CHANNELS 6 Xposition Yposition Zposition Zrotation Yrotation Xrotation
											JOINT RightHandRing3
											{
												OFFSET 0.000000 0.000000 3.654984
												CHANNELS 6 Xposition Yposition Zposition Zrotation Yrotation Xrotation
												JOINT RightHandRing4
												{
													OFFSET 0.000000 0.000000 2.741241
													CHANNELS 6 Xposition Yposition Zposition Zrotation Yrotation Xrotation
													End Site
													{
														OFFSET 0.000000 0.000000 0.100006
													}
												}
											}
										}
									}
									JOINT RightHandPinky1
									{
										OFFSET -0.173504 4.467199 7.976990
										CHANNELS 6 Xposition Yposition Zposition Zrotation Yrotation Xrotation
										JOINT RightHandPinky2
										{
											OFFSET 0.000000 0.000000 3.350403
											CHANNELS 6 Xposition Yposition Zposition Zrotation Yrotation Xrotation
											JOINT RightHandPinky3
											{
												OFFSET 0.000000 0.000000 2.842758
												CHANNELS 6 Xposition Yposition Zposition Zrotation Yrotation Xrotation
												JOINT RightHandPinky4
												{
													OFFSET 0.000000 0.000000 2.639709
													CHANNELS 6 Xposition Yposition Zposition Zrotation Yrotation Xrotation
													End Site
													{
														OFFSET 0.000000 0.000000 0.100006
													}
												}
											}
										}
									}
									JOINT RightForeArmEnd
									{
										OFFSET 0.000000 0.000000 0.000000
										CHANNELS 6 Xposition Yposition Zposition Zrotation Yrotation Xrotation
										End Site
										{
											OFFSET 0.000000 0.000000 0.100006
										}
									}
								}
								JOINT RightArmEnd
								{
									OFFSET 0.000000 0.000000 0.000000
									CHANNELS 6 Xposition Yposition Zposition Zrotation Yrotation Xrotation
									End Site
									{
										OFFSET 0.000000 0.000000 0.100006
									}
								}
							}
						}
					}
					JOINT LeftShoulder
					{
						OFFSET 2.625389 0.000001 11.175217
						CHANNELS 6 Xposition Yposition Zposition Zrotation Yrotation Xrotation
						JOINT LeftArm
						{
							OFFSET 0.000000 0.000001 10.813629
							CHANNELS 6 Xposition Yposition Zposition Zrotation Yrotation Xrotation
							JOINT LeftForeArm
							{
								OFFSET 0.000000 0.000002 28.724777
								CHANNELS 6 Xposition Yposition Zposition Zrotation Yrotation Xrotation
								JOINT LeftHand
								{
									OFFSET 0.644382 0.328873 25.716171
									CHANNELS 6 Xposition Yposition Zposition Zrotation Yrotation Xrotation
									JOINT LeftHandThumb1
									{
										OFFSET 2.867321 -2.944290 3.959564
										CHANNELS 6 Xposition Yposition Zposition Zrotation Yrotation Xrotation
										JOINT LeftHandThumb2
										{
											OFFSET 0.000000 0.000000 3.350403
											CHANNELS 6 Xposition Yposition Zposition Zrotation Yrotation Xrotation
											JOINT LeftHandThumb3
											{
												OFFSET 0.000000 0.000000 3.756516
												CHANNELS 6 Xposition Yposition Zposition Zrotation Yrotation Xrotation
												JOINT LeftHandThumb4
												{
													OFFSET 0.000000 0.000000 3.100006
													CHANNELS 6 Xposition Yposition Zposition Zrotation Yrotation Xrotation
													End Site
													{
														OFFSET 0.000000 0.000000 0.100006
													}
												}
											}
										}
									}
									JOINT LeftHandIndex1
									{
										OFFSET 0.086754 -2.345279 10.030899
										CHANNELS 6 Xposition Yposition Zposition Zrotation Yrotation Xrotation
										JOINT LeftHandIndex2
										{
											OFFSET 0.000000 0.000000 4.061096
											CHANNELS 6 Xposition Yposition Zposition Zrotation Yrotation Xrotation
											JOINT LeftHandIndex3
											{
												OFFSET 0.000000 0.000001 3.248871
												CHANNELS 6 Xposition Yposition Zposition Zrotation Yrotation Xrotation
												JOINT LeftHandIndex4
												{
													OFFSET 0.000000 0.000000 2.639709
													CHANNELS 6 Xposition Yposition Zposition Zrotation Yrotation Xrotation
													End Site
													{
														OFFSET 0.000000 0.000000 0.100006
													}
												}
											}
										}
									}
									JOINT LeftHandMiddle1
									{
										OFFSET -0.104103 -0.006767 9.502945
										CHANNELS 6 Xposition Yposition Zposition Zrotation Yrotation Xrotation
										JOINT LeftHandMiddle2
										{
											OFFSET 0.000000 0.000000 4.568726
											CHANNELS 6 Xposition Yposition Zposition Zrotation Yrotation Xrotation
											JOINT LeftHandMiddle3
											{
												OFFSET 0.000000 0.000000 3.654984
												CHANNELS 6 Xposition Yposition Zposition Zrotation Yrotation Xrotation
												JOINT LeftHandMiddle4
												{
													OFFSET 0.000000 0.000000 2.741241
													CHANNELS 6 Xposition Yposition Zposition Zrotation Yrotation Xrotation
													End Site
													{
														OFFSET 0.000000 0.000000 0.100006
													}
												}
											}
										}
									}
									JOINT LeftHandRing1
									{
										OFFSET -0.086754 2.267443 8.921707
										CHANNELS 6 Xposition Yposition Zposition Zrotation Yrotation Xrotation
										JOINT LeftHandRing2
										{
											OFFSET 0.000000 0.000000 4.061096
											CHANNELS 6 Xposition Yposition Zposition Zrotation Yrotation Xrotation
											JOINT LeftHandRing3
											{
												OFFSET 0.000000 0.000000 3.654984
												CHANNELS 6 Xposition Yposition Zposition Zrotation Yrotation Xrotation
												JOINT LeftHandRing4
												{
													OFFSET 0.000000 0.000000 2.741241
													CHANNELS 6 Xposition Yposition Zposition Zrotation Yrotation Xrotation
													End Site
													{
														OFFSET 0.000000 0.000000 0.100006
													}
												}
											}
										}
									}
									JOINT LeftHandPinky1
									{
										OFFSET 0.173504 4.467199 7.976990
										CHANNELS 6 Xposition Yposition Zposition Zrotation Yrotation Xrotation
										JOINT LeftHandPinky2
										{
											OFFSET 0.000000 0.000000 3.350403
											CHANNELS 6 Xposition Yposition Zposition Zrotation Yrotation Xrotation
											JOINT LeftHandPinky3
											{
												OFFSET 0.000000 0.000000 2.842758
												CHANNELS 6 Xposition Yposition Zposition Zrotation Yrotation Xrotation
												JOINT LeftHandPinky4
												{
													OFFSET 0.000000 0.000000 2.639709
													CHANNELS 6 Xposition Yposition Zposition Zrotation Yrotation Xrotation
													End Site
													{
														OFFSET 0.000000 0.000000 0.100006
													}
												}
											}
										}
									}
									JOINT LeftForeArmEnd
									{
										OFFSET 0.000000 0.000000 0.000000
										CHANNELS 6 Xposition Yposition Zposition Zrotation Yrotation Xrotation
										End Site
										{
											OFFSET 0.000000 0.000000 0.100006
										}
									}
								}
								JOINT LeftArmEnd
								{
									OFFSET 0.000000 0.000000 0.000000
									CHANNELS 6 Xposition Yposition Zposition Zrotation Yrotation Xrotation
									End Site
									{
										OFFSET 0.000000 0.000000 0.100006
									}
								}
							}
						}
					}
				}
			}
		}
	}
	JOINT RightUpLeg
	{
		OFFSET -11.289944 0.000000 0.000000
		CHANNELS 6 Xposition Yposition Zposition Zrotation Yrotation Xrotation
		JOINT RightLeg
		{
			OFFSET 0.000000 -0.000003 -38.200325
			CHANNELS 6 Xposition Yposition Zposition Zrotation Yrotation Xrotation
			JOINT RightFoot
			{
				OFFSET 0.000000 -0.000003 -39.900856
				CHANNELS 6 Xposition Yposition Zposition Zrotation Yrotation Xrotation
				JOINT RightToeBase
				{
					OFFSET 0.000000 -15.261642 0.000001
					CHANNELS 6 Xposition Yposition Zposition Zrotation Yrotation Xrotation
					JOINT RightToeBaseEnd
					{
						OFFSET 0.000000 -7.370708 0.000001
						CHANNELS 6 Xposition Yposition Zposition Zrotation Yrotation Xrotation
						End Site
						{
							OFFSET 0.000000 0.000000 0.100000
						}
					}
				}
				JOINT RightLegEnd
				{
					OFFSET 0.000000 0.000000 0.000000
					CHANNELS 6 Xposition Yposition Zposition Zrotation Yrotation Xrotation
					End Site
					{
						OFFSET 0.000000 0.000000 0.100000
					}
				}
			}
			JOINT RightUpLegEnd
			{
				OFFSET 0.000000 0.000000 0.000000
				CHANNELS 6 Xposition Yposition Zposition Zrotation Yrotation Xrotation
				End Site
				{
					OFFSET 0.000000 0.000000 0.099998
				}
			}
		}
	}
	JOINT LeftUpLeg
	{
		OFFSET 11.315662 0.000000 0.000000
		CHANNELS 6 Xposition Yposition Zposition Zrotation Yrotation Xrotation
		JOINT LeftLeg
		{
			OFFSET 0.000000 -0.000003 -38.200325
			CHANNELS 6 Xposition Yposition Zposition Zrotation Yrotation Xrotation
			JOINT LeftFoot
			{
				OFFSET 0.000000 -0.000003 -39.900856
				CHANNELS 6 Xposition Yposition Zposition Zrotation Yrotation Xrotation
				JOINT LeftToeBase
				{
					OFFSET 0.000000 -15.261642 0.000001
					CHANNELS 6 Xposition Yposition Zposition Zrotation Yrotation Xrotation
					JOINT LeftToeBaseEnd
					{
						OFFSET 0.000000 -7.539997 0.000001
						CHANNELS 6 Xposition Yposition Zposition Zrotation Yrotation Xrotation
						End Site
						{
							OFFSET 0.000000 0.000000 0.100000
						}
					}
				}
				JOINT LeftLegEnd
				{
					OFFSET 0.000000 0.000000 0.000000
					CHANNELS 6 Xposition Yposition Zposition Zrotation Yrotation Xrotation
					End Site
					{
						OFFSET 0.000000 0.000000 0.100000
					}
				}
			}
			JOINT LeftUpLegEnd
			{
				OFFSET 0.000000 0.000000 0.000000
				CHANNELS 6 Xposition Yposition Zposition Zrotation Yrotation Xrotation
				End Site
				{
					OFFSET 0.000000 0.000000 0.099998
				}
			}
		}
	}
}
MOTION
Frames: 2
Frame Time: 0.016667
-7.717609 -26.169426 85.249580 -52.280884 8.364457 -8.977469 0.000001 2.080111 8.814248 -0.860923 -6.886292 3.049276 0.000000 0.000001 8.844141 -2.139207 -6.574904 0.942795 0.000003 0.000001 11.682261 -4.802362 -4.550037 8.296169 -0.000002 -0.000001 11.746698 -0.982775 0.443878 3.026191 0.000003 -0.000002 17.658283 21.425752 12.160112 27.427075 -0.000005 0.000008 5.101541 12.173006 3.101823 -0.162589 0.000002 0.000003 5.101514 2.413896 4.524461 -18.611195 -0.000001 -0.000003 11.655121 -0.000002 0.000000 -0.000001 -2.625395 0.000001 11.175219 3.139213 -95.695342 -0.334303 -0.000012 0.000001 10.434713 -49.061491 -47.877140 39.648254 0.000005 0.000011 29.628439 18.938620 -4.944893 33.468620 0.000010 0.000004 22.857597 20.738087 -1.887655 -14.347482 -2.867319 -2.944292 3.959571 31.742642 -16.401861 52.842329 -0.000006 -0.000007 3.350392 -10.770811 7.598380 -19.674703 0.000005 0.000000 3.756500 -7.196570 5.677120 -13.491228 0.000004 0.000002 3.147323 -0.000000 -0.000000 0.000002 -0.086760 -2.345287 10.030879 -10.372464 -9.635381 2.086422 -0.000007 -0.000002 4.061081 0.434356 -6.924997 0.977351 -0.000005 -0.000002 3.248850 -0.047662 -6.924984 0.971571 0.000000 -0.000006 2.639694 -0.000005 -0.000000 -0.000001 0.104103 -0.006775 9.502923 -5.423154 -10.494009 -0.339992 -0.000002 -0.000003 4.568715 0.472972 -7.421351 0.388896 0.000001 0.000001 3.654965 -0.028598 -7.421385 0.393716 0.000005 -0.000001 2.741227 -0.000001 0.000000 -0.000001 0.086747 2.267435 8.921700 2.433711 -11.970187 -2.161202 0.000003 -0.000004 4.061081 -0.966192 -8.588142 -0.523856 -0.000004 0.000002 3.654975 0.030797 -8.588194 -0.529234 -0.000001 0.000001 2.741210 0.000001 -0.000002 -0.000000 -0.173501 4.467195 7.976985 10.929641 -11.969924 -6.212547 -0.000005 0.000003 3.350391 -1.845986 -9.111215 -1.786532 0.000001 0.000003 2.842742 0.135521 -9.110434 -1.783849 -0.000001 -0.000002 2.639695 -0.000001 0.000001 -0.000000 0.000001 -0.000005 -0.000016 -0.000004 -0.000001 -0.000000 0.000009 0.000004 -0.000001 0.000002 -0.000001 0.000000 2.625392 -0.000002 11.175230 -5.311404 95.733475 -0.760259 -0.000002 -0.000000 10.813632 56.864620 49.285460 47.256952 -0.000009 -0.000005 28.724756 -5.306943 1.826773 44.421173 0.644379 0.328868 25.716156 -14.027691 -5.857753 -18.858709 2.867302 -2.944334 3.959569 -32.873017 12.350643 59.650494 -0.000011 -0.000013 3.350455 2.116834 -1.968275 -4.165777 -0.000000 0.000000 3.756538 1.454715 -1.383279 -2.884891 -0.000001 -0.000003 3.100021 0.000000 -0.000001 -0.000001 0.086756 -2.345278 10.030906 -12.365812 -18.653339 0.878750 0.000002 -0.000002 4.061110 0.514678 -0.001374 0.000172 -0.000001 -0.000009 3.248887 0.007895 0.000776 -0.000070 -0.000005 -0.000002 2.639723 0.000001 -0.000002 0.000001 -0.104101 -0.006765 9.502935 -6.036485 -13.784259 -2.967422 0.000004 0.000003 4.568743 0.501687 0.000007 0.000024 -0.000009 -0.000001 3.654984 0.001428 -0.000004 -0.000023 -0.000004 0.000003 2.741241 0.000002 -0.000001 -0.000000 -0.086756 2.267443 8.921710 3.944227 -2.805186 -4.253423 -0.000006 0.000000 4.061092 -1.009362 0.020502 -0.000418 -0.000005 -0.000001 3.654995 -0.003654 -0.010791 0.000008 -0.000007 0.000001 2.741272 0.000001 0.000001 -0.000000 0.173507 4.467200 7.976981 14.190636 7.478222 -3.848724 0.000004 0.000001 3.350422 -1.965883 4.480685 0.872758 0.000003 -0.000001 2.842774 0.034658 4.480685 0.872830 -0.000003 0.000000 2.639694 -0.000000 -0.000000 0.000000 -0.000007 0.000000 0.000030 0.000001 -0.000001 0.000001 -0.000009 -0.000002 -0.000015 0.000002 -0.000000 0.000001 -11.289948 -0.000000 0.000011 23.920654 -16.877553 -2.148086 -0.000002 -0.000006 -38.200336 0.089930 -0.018155 16.857971 0.000001 0.000001 -39.900864 -3.347918 12.148535 16.085801 -0.000000 -15.261653 0.000001 -0.476456 -0.818440 -29.349804 0.000005 -7.370716 0.000000 -0.000000 0.000000 0.000000 0.000000 -0.000003 0.000000 -0.000001 0.000000 -0.000000 -0.000000 -0.000000 -0.000003 -0.000001 0.000000 -0.000001 11.315668 0.000007 0.000022 -39.431010 -16.137053 0.371525 -0.000005 0.000000 -38.200321 0.183360 -0.330270 60.963612 -0.000002 0.000005 -39.900852 -14.842225 14.183930 43.250004 -0.000002 -15.261647 0.000011 9.854974 -4.453147 -53.656368 0.000000 -7.539995 -0.000002 -0.000000 0.000000 -0.000002 0.000004 0.000003 0.000003 0.000000 -0.000000 -0.000000 -0.000001 0.000002 -0.000000 0.000001 0.000000 0.000001 
-7.688137 -26.237671 85.263321 -52.678821 8.215048 -8.959036 0.000001 2.080109 8.814241 -0.838702 -6.885982 3.003806 0.000001 0.000001 8.844129 -2.159769 -6.759057 0.904483 0.000001 -0.000002 11.682261 -4.528003 -4.208028 8.250946 0.000002 0.000002 11.746693 -0.900206 0.587715 3.049826 0.000002 -0.000005 17.658258 21.398795 11.721387 27.513139 -0.000004 -0.000006 5.101509 12.389822 2.945638 -0.078645 -0.000003 0.000005 5.101540 2.434442 4.474996 -18.671220 0.000004 0.000001 11.655106 -0.000000 0.000000 -0.000001 -2.625386 -0.000001 11.175217 3.097454 -95.716932 -0.331781 0.000004 0.000001 10.434700 -49.346597 -47.958610 39.799246 -0.000002 0.000010 29.628407 19.030936 -4.962412 33.470034 0.000006 0.000003 22.857626 20.810757 -1.909432 -14.362272 -2.867323 -2.944284 3.959557 31.742642 -16.401869 52.842291 -0.000003 0.000010 3.350408 -10.770791 7.598389 -19.674660 0.000004 0.000007 3.756496 -7.196584 5.677129 -13.491254 0.000004 0.000008 3.147339 -0.000000 0.000000 -0.000001 -0.086755 -2.345280 10.030883 -10.373791 -9.625512 2.083028 0.000002 -0.000004 4.061067 0.434705 -6.917569 0.978857 0.000000 0.000003 3.248875 -0.048063 -6.917534 0.973030 -0.000001 -0.000000 2.639695 0.000000 0.000001 0.000001 0.104112 -0.006768 9.502937 -5.418012 -10.478908 -0.339883 -0.000001 0.000001 4.568696 0.473065 -7.410418 0.388948 -0.000012 0.000005 3.654996 -0.028339 -7.410641 0.393732 0.000002 -0.000004 2.741227 0.000002 0.000001 -0.000001 0.086756 2.267441 8.921700 2.437053 -11.942956 -2.157552 0.000007 -0.000001 4.061073 -0.966252 -8.568425 -0.524846 -0.000002 0.000000 3.654972 0.030691 -8.568685 -0.529543 0.000001 0.000002 2.741227 -0.000002 0.000002 0.000000 -0.173497 4.467199 7.976975 10.933514 -11.931127 -6.202572 -0.000001 0.000002 3.350397 -1.846842 -9.082501 -1.782543 0.000001 0.000003 2.842756 0.135374 -9.082511 -1.779756 -0.000001 0.000000 2.639709 0.000003 -0.000001 0.000001 0.000003 -0.000000 -0.000017 0.000001 -0.000002 0.000001 0.000007 0.000002 0.000013 0.000003 -0.000003 0.000000 2.625397 -0.000002 11.175199 -5.155032 95.830047 -0.769224 0.000013 0.000001 10.813634 56.673840 49.095335 47.237646 -0.000008 -0.000009 28.724758 -5.544846 1.852060 44.419702 0.644403 0.328883 25.716131 -14.579758 -6.186510 -18.539884 2.867299 -2.944322 3.959580 -32.936251 12.199624 59.928169 -0.000010 0.000009 3.350425 1.805639 -1.696608 -3.566312 -0.000008 0.000002 3.756537 1.242619 -1.190234 -2.470393 0.000001 -0.000007 3.100038 0.000000 0.000002 -0.000000 0.086758 -2.345277 10.030916 -12.716467 -19.973701 1.458955 -0.000008 -0.000001 4.061115 0.515305 -0.002413 0.000175 -0.000006 0.000001 3.248896 0.008378 0.001343 -0.000080 0.000003 -0.000003 2.639755 -0.000000 -0.000001 0.000001 -0.104098 -0.006768 9.502949 -6.262994 -14.872267 -2.614738 0.000002 0.000003 4.568735 0.502649 0.000018 0.000027 0.000004 0.000001 3.654998 0.002357 -0.000005 -0.000026 0.000006 0.000001 2.741238 0.000000 -0.000004 0.000001 -0.086750 2.267445 8.921716 3.843321 -3.389299 -4.159494 -0.000011 -0.000001 4.061104 -1.011297 -0.000018 -0.000066 0.000001 0.000000 3.655000 -0.005058 0.000003 0.000008 0.000004 0.000002 2.741257 0.000000 0.000000 0.000000 0.173512 4.467201 7.976996 14.152976 7.326191 -3.968833 -0.000005 -0.000001 3.350437 -1.968523 4.358558 0.848809 -0.000004 -0.000000 2.842775 0.032533 4.358561 0.848898 -0.000004 0.000000 2.639724 -0.000000 -0.000000 0.000000 -0.000003 0.000003 0.000017 -0.000000 0.000002 0.000000 0.000014 0.000003 -0.000014 -0.000001 0.000002 -0.000004 -11.289949 0.000000 0.000006 24.260340 -16.696044 -2.302367 -0.000002 -0.000010 -38.200321 0.087444 -0.018186 17.103427 -0.000001 -0.000001 -39.900856 -3.278798 12.093058 15.984712 -0.000001 -15.261649 0.000000 -0.464634 -0.816980 -29.291720 -0.000001 -7.370709 0.000000 0.000001 0.000000 -0.000000 0.000000 -0.000000 -0.000002 -0.000002 0.000001 0.000001 -0.000001 0.000001 0.000004 -0.000000 0.000000 -0.000000 11.315664 0.000001 0.000005 -39.584136 -15.911795 0.495775 -0.000005 0.000002 -38.200317 0.195701 -0.348374 60.675528 -0.000007 0.000000 -39.900852 -15.370933 14.492615 43.469462 0.000000 -15.261646 0.000009 10.401441 -4.858727 -54.337423 -0.000004 -7.539997 0.000001 -0.000000 0.000001 0.000000 0.000000 0.000005 0.000002 -0.000000 -0.000000 0.000000 -0.000004 -0.000006 0.000001 -0.000001 0.000001 -0.000002 
